<?xml version="1.0" encoding="utf-8"?>
<svg viewBox="1.6057 22.4226 196.8613 176.0283" xmlns="http://www.w3.org/2000/svg">
  <path d="M 3.27 198.105 C 5.21 198.735 10.654 198.389 12.574 197.979 C 14.824 197.499 17.788 196.877 20.018 196.367 C 24.568 195.337 25.267 195.29 29.574 193.494 C 31.395 192.735 33.663 188.845 31.933 189.255 C 28.133 190.165 25.077 191.21 21.277 192.09 C 18.067 192.83 14.037 193.694 10.797 194.294 C 23.107 189.504 36.658 185.493 47.788 178.358 C 60.474 170.226 72.398 161.228 81.879 150.465 C 87.039 144.607 89.766 137.698 93.366 130.658 C 93.646 130.118 93.932 128.405 93.232 127.995 C 92.562 127.605 89.986 128.956 89.726 129.476 C 83.556 141.556 75.619 150.873 65.319 159.633 C 54.169 169.103 42.384 176.571 29.174 182.731 C 22.184 185.991 14.816 189.345 7.606 192.075 C 8.526 191.085 9.127 190.764 10.057 189.784 C 12.717 186.984 15.437 184.244 18.197 181.554 C 18.747 181.024 19.625 179.606 19.41 178.78 C 18.817 176.497 16.625 177.272 16.135 177.752 C 12.955 180.852 9.835 184.012 6.785 187.242 C 5.325 188.772 -1.49 196.565 3.27 198.105 Z" style="stroke-width: 0px; paint-order: fill; stroke: rgb(221, 255, 113); fill: rgb(28, 28, 28);"/>
  <path d="M 17.522 31.76 Q 17.492 31.542 17.421 31.365 Q 17.35 31.188 17.266 30.97 Q 17.125 30.644 17.011 30.262 Q 16.896 29.881 16.89 29.362 Q 16.941 29.087 17.021 28.963 Q 17.102 28.839 17.183 28.756 L 17.286 28.263 L 17.696 28.257 Q 17.915 28.282 18.148 28.279 Q 18.38 28.276 18.599 28.273 Q 19.638 28.26 20.73 28.164 Q 21.823 28.068 22.97 27.944 Q 24.226 27.764 25.674 27.664 Q 25.807 27.362 25.846 27.279 Q 25.886 27.196 25.94 27.086 L 26.238 26.918 Q 26.867 26.883 27.115 27.058 Q 27.364 27.232 27.502 27.395 Q 28.213 27.331 28.95 27.226 Q 29.687 27.121 30.478 27.001 Q 31.57 26.851 32.689 26.7 Q 33.809 26.549 34.875 26.535 Q 35.34 26.53 35.75 26.552 Q 36.161 26.574 36.544 26.624 L 36.875 26.866 Q 36.987 27.056 37.153 27.218 Q 37.319 27.38 37.54 27.541 Q 37.954 27.864 38.357 28.351 Q 38.76 28.838 38.663 29.796 L 38.529 30.071 Q 38.421 30.182 38.259 30.294 L 37.99 30.653 L 37.689 30.656 Q 37.416 30.66 37.28 30.703 Q 37.143 30.745 36.953 30.83 Q 36.844 30.886 36.708 30.929 Q 36.572 30.971 36.409 31.028 Q 36.107 31.005 35.943 31.007 Q 35.779 31.009 35.561 31.011 Q 34.74 31.022 33.785 31.143 Q 32.829 31.265 31.929 31.413 Q 31.274 31.503 30.673 31.579 Q 30.072 31.655 29.581 31.716 Q 29.316 32.431 29.105 32.98 Q 28.893 33.53 28.654 34.08 Q 28.415 34.63 28.203 35.193 Q 27.991 35.756 27.809 36.442 Q 27.487 36.939 27.274 37.393 Q 27.061 37.846 26.931 38.422 Q 26.527 38.892 26.356 39.441 Q 26.186 39.991 26.054 40.375 L 25.95 40.787 Q 25.761 40.98 25.721 41.09 Q 25.681 41.2 25.574 41.338 Q 25.496 41.695 25.364 42.025 Q 25.311 42.162 25.258 42.313 Q 25.205 42.464 25.233 42.546 Q 25.183 42.847 25.075 43.013 Q 25.077 43.177 25.052 43.341 Q 25.027 43.506 25.002 43.67 Q 24.949 43.862 24.924 44.013 Q 24.899 44.163 24.955 44.299 Q 25.038 44.408 25.122 44.516 Q 25.205 44.624 25.262 44.788 Q 25.317 44.842 25.4 44.868 Q 25.482 44.894 25.537 44.948 Q 25.759 45.137 25.95 45.162 L 26.228 45.487 Q 26.404 46.469 25.947 47.021 Q 25.462 47.657 24.314 47.671 L 23.931 47.649 Q 23.737 47.46 23.709 47.405 Q 23.462 47.299 23.297 47.233 Q 23.132 47.167 22.993 46.977 Q 22.937 46.923 22.855 46.91 Q 22.773 46.898 22.718 46.844 Q 22.443 46.765 22.278 46.658 L 21.975 46.498 Q 21.999 46.224 21.997 46.114 Q 21.775 45.816 21.647 45.463 Q 21.52 45.109 21.433 44.727 Q 21.347 44.427 21.275 44.182 Q 21.204 43.937 21.065 43.747 Q 20.986 41.834 21.379 40.53 Q 21.773 39.226 22.25 37.99 Q 22.515 37.33 22.752 36.643 Q 22.99 35.957 23.172 35.243 L 23.469 34.939 Q 23.658 34.772 23.713 34.744 Q 23.708 34.389 23.84 34.045 Q 23.973 33.702 24.132 33.344 Q 24.239 33.124 24.332 32.904 Q 24.425 32.684 24.45 32.52 Q 24.259 32.522 24.108 32.538 Q 23.958 32.553 23.794 32.583 Q 23.44 32.669 23.112 32.673 Q 22.866 32.677 22.756 32.651 Q 22.539 32.763 22.348 32.779 Q 22.156 32.795 21.965 32.797 L 21.637 32.802 L 21.309 32.806 Q 20.981 32.81 20.79 32.894 Q 20.408 32.899 20.298 32.901 Q 20.189 32.902 20.052 32.904 L 19.724 32.908 L 19.396 32.912 Q 19.177 32.915 18.903 32.877 Q 18.629 32.84 18.327 32.679 L 18.132 32.463 Q 17.964 32.165 17.827 32.139 L 17.526 32.061 Z M 47.627 41.543 Q 47.797 42.236 47.656 42.73 Q 47.516 43.224 47.191 43.61 Q 46.867 43.996 46.412 44.265 Q 45.958 44.534 45.526 44.771 Q 45.288 44.672 45.061 44.557 Q 44.834 44.441 44.551 44.405 Q 44.094 43.815 43.688 43.369 Q 43.282 42.923 43.202 42.271 Q 43.198 42.244 43.194 41.968 Q 43.19 41.691 43.204 41.356 Q 43.218 41.022 43.212 40.732 Q 43.206 40.442 43.202 40.415 Q 42.59 40.571 41.951 40.898 Q 41.312 41.224 40.727 41.626 Q 40.142 42.027 39.637 42.414 Q 39.133 42.802 38.818 43.076 Q 38.831 43.157 38.774 43.485 Q 38.717 43.813 38.611 44.177 Q 38.505 44.541 38.36 44.842 Q 38.216 45.142 38.027 45.173 Q 38.067 45.25 38.134 45.322 Q 38.202 45.394 38.17 45.538 Q 37.81 45.708 37.542 45.932 Q 37.274 46.156 36.97 46.331 Q 36.666 46.506 36.289 46.568 Q 35.911 46.63 35.354 46.445 Q 35.327 46.283 35.172 46.184 Q 35.017 46.084 34.854 46.014 Q 34.69 45.944 34.571 45.895 Q 34.452 45.845 34.443 45.791 Q 34.312 45.84 34.304 45.62 Q 34.295 45.4 34.502 45.476 Q 34.143 45.147 34.029 44.875 Q 33.915 44.603 33.601 44.211 Q 33.646 44.148 33.664 44.007 Q 33.682 43.865 33.692 43.753 Q 33.701 43.641 33.746 43.578 Q 33.791 43.515 33.885 43.583 Q 33.791 43.349 33.819 43.178 Q 33.846 43.007 33.878 42.863 Q 33.91 42.72 33.914 42.58 Q 33.919 42.441 33.785 42.297 Q 34.119 41.632 34.14 40.922 Q 34.162 40.212 34.096 39.641 Q 34.254 39.421 34.344 39.046 Q 34.435 38.67 34.456 38.293 Q 34.477 37.915 34.408 37.58 Q 34.339 37.245 34.223 37.043 Q 34.227 36.903 34.506 36.913 Q 34.521 35.996 34.405 34.865 Q 34.288 33.734 34.283 32.696 Q 34.279 31.657 34.53 30.826 Q 34.781 29.995 35.578 29.615 Q 35.833 30.155 36.16 30.544 Q 36.487 30.934 36.862 31.274 Q 37.237 31.614 37.614 31.968 Q 37.99 32.321 38.345 32.79 Q 38.402 33.307 38.432 33.995 Q 38.462 34.682 38.456 35.404 Q 38.45 36.125 38.435 36.793 Q 38.42 37.46 38.388 37.937 Q 38.437 38.067 38.563 38.074 Q 38.689 38.081 38.643 38.31 Q 39.264 38.042 39.944 37.792 Q 40.623 37.541 41.298 37.264 Q 41.973 36.987 42.6 36.676 Q 43.228 36.365 43.746 35.975 Q 43.708 34.9 43.75 33.812 Q 43.793 32.725 43.449 31.645 Q 43.566 31.515 43.621 31.34 Q 43.675 31.164 43.855 31.079 Q 43.636 30.589 43.569 30.018 Q 43.503 29.447 43.594 28.905 Q 43.685 28.364 43.963 27.944 Q 44.24 27.524 44.708 27.337 Q 45.076 27.719 45.374 28.183 Q 45.672 28.647 45.983 29.108 Q 46.294 29.57 46.624 29.973 Q 46.954 30.376 47.412 30.633 Q 47.621 31.402 47.799 32.232 Q 47.977 33.061 48.147 33.92 Q 48.099 34.981 48.001 35.981 Q 47.902 36.981 47.972 38.078 Q 47.818 38.325 47.755 38.613 Q 47.691 38.9 47.63 39.201 Q 47.569 39.502 47.476 39.781 Q 47.383 40.059 47.225 40.279 Q 47.386 40.585 47.366 40.88 Q 47.345 41.174 47.627 41.543 Z M 56.003 41.698 Q 56.165 42.514 55.947 42.985 Q 55.729 43.457 55.313 43.703 Q 54.897 43.948 54.351 43.993 Q 53.805 44.037 53.311 43.97 Q 53.025 43.596 52.789 43.029 Q 52.552 42.462 52.342 41.853 Q 52.131 41.244 51.962 40.648 Q 51.793 40.051 51.669 39.59 Q 51.796 39.258 51.824 38.833 Q 51.851 38.408 51.851 37.97 Q 51.851 37.532 51.851 37.081 Q 51.851 36.63 51.892 36.218 Q 52.048 35.064 52.385 34.014 Q 52.721 32.964 52.905 31.837 Q 52.952 31.589 52.849 31.373 Q 52.747 31.158 52.796 30.965 Q 52.819 30.854 52.955 30.809 Q 53.09 30.764 53.113 30.626 Q 53.186 30.323 53.139 30.133 Q 53.092 29.943 53.22 29.666 Q 53.35 29.443 53.542 29.013 Q 53.733 28.583 53.664 28.12 Q 53.905 27.948 54.117 27.723 Q 54.329 27.497 54.556 27.312 Q 54.782 27.127 55.065 26.982 Q 55.348 26.836 55.758 26.823 Q 55.985 27.09 56.063 27.416 Q 56.142 27.741 56.221 28.067 Q 56.299 28.393 56.445 28.676 Q 56.59 28.959 56.923 29.112 Q 56.93 29.331 56.94 29.659 Q 56.951 29.987 56.988 30.3 Q 57.025 30.614 57.129 30.87 Q 57.232 31.127 57.454 31.202 Q 57.003 32.529 56.619 33.827 Q 56.235 35.125 56.003 36.432 Q 55.77 37.738 55.742 39.052 Q 55.715 40.366 56.003 41.698 Z M 59.681 30.751 Q 59.872 30.177 60.296 29.767 Q 60.72 29.357 61.226 29.07 Q 61.732 28.783 62.278 28.591 Q 62.825 28.4 63.318 28.263 Q 64.411 27.798 65.655 27.374 Q 66.9 26.951 68.198 26.622 Q 69.497 26.294 70.864 26.199 Q 72.232 26.103 73.736 26.54 Q 73.818 26.814 73.982 27.06 Q 74.146 27.306 74.323 27.552 Q 74.501 27.798 74.638 28.031 Q 74.775 28.263 74.802 28.509 Q 75.075 28.755 75.239 29.042 Q 75.403 29.329 75.294 29.794 Q 75.021 30.013 74.761 30.191 Q 74.501 30.368 74.2 30.505 Q 73.189 30.259 72.15 30.341 Q 71.111 30.423 70.29 30.478 Q 70.044 30.232 69.702 30.232 Q 69.361 30.232 68.991 30.341 Q 68.622 30.451 68.253 30.56 Q 67.884 30.669 67.556 30.615 Q 67.282 30.833 66.886 30.902 Q 66.489 30.97 66.025 31.025 Q 65.997 31.161 66.079 31.202 Q 66.161 31.243 66.107 31.38 Q 66.271 31.572 66.53 31.654 Q 66.79 31.736 67.077 31.818 Q 67.364 31.9 67.583 32.023 Q 67.802 32.146 67.884 32.419 Q 68.294 32.419 68.595 32.611 Q 68.896 32.802 69.087 33.076 Q 69.278 33.349 69.374 33.663 Q 69.47 33.978 69.47 34.224 Q 69.552 34.443 69.661 34.415 Q 69.771 34.388 69.907 34.525 Q 69.989 34.88 70.318 35.249 Q 70.646 35.618 70.837 36.056 Q 70.892 36.74 70.919 37.273 Q 70.946 37.806 70.728 38.353 Q 70.318 39.365 69.593 40.158 Q 68.868 40.951 67.952 41.566 Q 67.036 42.181 65.997 42.618 Q 64.958 43.056 63.974 43.357 Q 63.864 43.329 63.755 43.357 Q 63.646 43.384 63.7 43.22 Q 63.482 43.411 63.222 43.466 Q 62.962 43.521 62.661 43.507 Q 62.361 43.493 62.046 43.466 Q 61.732 43.439 61.458 43.493 Q 61.267 43.302 61.116 43.124 Q 60.966 42.947 60.884 42.673 Q 60.747 42.673 60.761 42.536 Q 60.775 42.4 60.665 42.4 Q 60.829 42.126 60.816 42.085 Q 60.802 42.044 60.734 42.017 Q 60.665 41.99 60.611 41.949 Q 60.556 41.908 60.583 41.826 Q 60.693 41.607 60.665 41.32 Q 60.638 41.033 60.611 40.732 Q 60.583 40.431 60.652 40.158 Q 60.72 39.884 61.048 39.72 Q 61.978 39.829 62.812 39.652 Q 63.646 39.474 64.384 39.146 Q 65.122 38.818 65.792 38.435 Q 66.462 38.052 67.118 37.751 Q 67.2 37.505 67.351 37.341 Q 67.501 37.177 67.665 37.04 Q 67.829 36.904 67.966 36.74 Q 68.103 36.576 68.157 36.329 Q 68.185 36.138 68.062 36.097 Q 67.939 36.056 67.939 35.892 L 67.638 35.81 Q 67.118 35.509 66.462 35.304 Q 65.806 35.099 65.341 34.853 Q 65.04 35.017 64.78 34.935 Q 64.521 34.853 64.111 34.771 Q 63.181 34.716 62.319 34.579 Q 61.458 34.443 60.665 34.087 Q 60.611 33.951 60.528 33.841 Q 60.446 33.732 60.228 33.786 Q 60.064 33.568 59.9 33.363 Q 59.736 33.158 59.599 32.911 Q 59.653 32.583 59.681 32.351 Q 59.708 32.118 59.517 31.9 Q 59.626 31.544 59.681 31.326 Q 59.736 31.107 59.681 30.751 Z" transform="matrix(1.379804015159607, 0, 0, 1.379804015159607, -14.956029891967773, -13.479501724243164)" style="fill: rgb(28, 28, 28);"/>
  <path d="M 107.119 43.873 Q 106.683 43.825 106.06 43.66 Q 105.436 43.496 104.855 43.644 Q 103.437 43.341 102.007 42.785 Q 100.578 42.23 99.414 41.583 Q 99.196 41.239 98.972 40.936 Q 98.747 40.633 98.308 40.445 Q 97.751 39.821 97.476 39.009 Q 97.202 38.198 97.105 37.321 Q 97.009 36.443 97.081 35.554 Q 97.153 34.664 97.322 33.861 Q 97.937 32.719 98.831 31.974 Q 99.725 31.228 100.657 30.502 Q 101.035 30.402 101.241 30.257 Q 101.446 30.113 101.674 30 Q 101.902 29.887 102.13 29.774 Q 102.358 29.661 102.557 29.474 Q 103.147 29.438 103.609 29.256 Q 104.071 29.073 104.524 28.86 Q 104.978 28.648 105.451 28.481 Q 105.925 28.314 106.514 28.278 Q 106.772 28.074 107.094 27.977 Q 107.416 27.881 107.752 27.787 Q 108.087 27.693 108.398 27.581 Q 108.709 27.468 108.918 27.227 Q 109.015 27.466 109.269 27.441 Q 109.524 27.416 109.753 27.373 Q 109.893 27.37 109.973 27.467 Q 110.053 27.564 110.12 27.659 Q 110.186 27.754 110.251 27.78 Q 110.316 27.805 110.394 27.68 Q 110.528 27.703 110.451 27.828 Q 110.373 27.954 110.337 28.003 Q 110.557 28.013 110.684 28.161 Q 110.811 28.308 111.13 28.391 Q 111.214 28.545 111.148 28.603 Q 111.083 28.66 111.054 28.822 Q 111.82 29.206 111.944 29.769 Q 112.067 30.332 111.78 30.864 Q 111.493 31.397 110.923 31.797 Q 110.353 32.197 109.76 32.26 Q 108.405 32.384 107.188 32.601 Q 105.97 32.819 105.101 33.5 Q 104.422 33.575 103.87 33.798 Q 103.317 34.021 102.804 34.334 Q 102.292 34.646 101.828 34.996 Q 101.365 35.345 100.863 35.674 Q 100.824 36.055 100.641 36.231 Q 100.457 36.408 100.285 36.6 Q 100.268 37.013 100.349 37.346 Q 100.429 37.68 100.539 38.004 Q 102.223 38.854 104.206 39.339 Q 106.189 39.824 108.204 40.204 Q 108.346 40.507 108.562 40.78 Q 108.778 41.054 108.948 41.348 Q 109.119 41.641 109.2 41.975 Q 109.28 42.308 109.119 42.752 Q 108.672 43.09 108.155 43.346 Q 107.638 43.603 107.119 43.873 Z M 127.808 40.573 Q 127.696 40.883 127.697 41.194 Q 127.699 41.506 127.743 41.815 Q 127.787 42.125 127.815 42.443 Q 127.843 42.762 127.817 43.067 Q 127.771 43.451 127.601 43.872 Q 127.431 44.294 127.189 44.668 Q 126.947 45.042 126.648 45.315 Q 126.348 45.588 126.015 45.669 Q 125.517 46.045 124.918 46.167 Q 124.319 46.29 123.771 46.539 Q 123.431 46.646 123.053 46.629 Q 122.675 46.613 122.284 46.593 Q 121.951 46.673 121.509 46.738 Q 121.067 46.804 120.605 46.835 Q 120.144 46.867 119.703 46.82 Q 119.263 46.772 118.953 46.661 Q 118.083 46.739 117.306 46.629 Q 116.528 46.519 115.581 46.039 Q 114.595 45.916 113.847 45.488 Q 113.098 45.06 112.601 44.432 Q 112.105 43.803 111.816 43.032 Q 111.528 42.261 111.429 41.47 Q 111.622 39.908 112.268 38.765 Q 112.915 37.622 113.789 36.738 Q 114.663 35.855 115.667 35.176 Q 116.67 34.497 117.61 33.843 Q 117.754 33.938 117.865 33.897 Q 117.975 33.856 118.086 33.758 Q 118.197 33.661 118.318 33.58 Q 118.439 33.499 118.578 33.508 Q 118.869 33.162 119.279 33.059 Q 119.688 32.957 119.999 32.644 Q 120.251 32.655 120.437 32.592 Q 120.624 32.529 120.805 32.436 Q 120.986 32.343 121.176 32.266 Q 121.366 32.19 121.592 32.194 L 121.67 31.904 Q 122.202 31.82 122.501 31.603 Q 122.8 31.386 123.223 31.075 Q 123.468 31.112 123.613 31.151 Q 123.758 31.19 124.063 31.215 Q 124.373 30.902 124.595 30.764 Q 124.816 30.625 125.216 30.506 Q 125.49 30.749 125.859 30.905 Q 126.228 31.061 126.44 31.429 Q 126.396 31.7 126.489 31.881 Q 126.582 32.062 126.709 32.223 Q 126.835 32.384 126.945 32.555 Q 127.055 32.726 127.044 32.978 Q 127.142 33.033 127.196 32.991 Q 127.25 32.949 127.348 33.003 Q 127.328 33.394 127.402 33.542 Q 127.476 33.689 127.489 34.061 Q 127.286 34.289 127.146 34.549 Q 127.005 34.808 126.706 34.869 Q 126.63 35.047 126.758 35.096 Q 126.887 35.144 126.878 35.284 Q 126.84 35.528 126.706 35.606 Q 127.064 36.806 127.257 38.089 Q 127.45 39.373 127.808 40.573 Z M 123.833 42.195 Q 124.017 41.933 124.238 41.794 Q 124.459 41.656 124.585 41.293 Q 124.51 41.046 124.515 40.92 Q 124.52 40.794 124.591 40.53 Q 124.23 39.556 124.059 38.505 Q 123.889 37.454 123.58 36.493 Q 123.499 36.585 123.339 36.655 Q 123.178 36.725 123.062 36.524 Q 122.953 36.721 122.796 36.778 Q 122.639 36.835 122.484 36.779 Q 122.329 36.724 122.175 36.612 Q 122.021 36.5 121.918 36.358 Q 120.989 36.76 120.067 37.136 Q 119.145 37.511 118.332 38.114 Q 118.212 38.138 118.189 38.118 Q 118.167 38.098 118.02 38.115 Q 117.674 38.56 117.261 38.888 Q 116.847 39.216 116.443 39.56 Q 116.039 39.905 115.7 40.323 Q 115.361 40.742 115.165 41.369 Q 115.515 41.859 116.101 42.101 Q 116.687 42.344 117.348 42.464 Q 118.009 42.585 118.662 42.633 Q 119.314 42.681 119.842 42.823 Q 121.022 42.856 121.932 42.633 Q 122.841 42.41 123.833 42.195 Z M 147.443 39.239 Q 147.295 39.825 147.279 40.283 Q 147.262 40.741 147.28 41.182 Q 147.282 41.589 147.276 41.978 Q 147.269 42.367 147.148 42.875 Q 146.705 43.473 146.415 44.008 Q 146.125 44.544 145.803 45.127 Q 145.073 45.884 144.44 46.444 Q 143.808 47.004 143.394 47.438 Q 143.22 47.521 143.071 47.657 Q 142.921 47.793 142.754 47.937 Q 142.676 47.996 142.544 48.124 Q 142.412 48.251 142.342 48.284 L 141.89 47.922 L 141.559 48.531 L 141.162 48.506 L 140.795 48.725 Q 140.005 49.403 139.259 49.793 Q 138.513 50.182 137.671 50.392 Q 136.828 50.603 135.828 50.685 Q 134.828 50.768 133.581 50.85 Q 133.161 50.644 132.843 50.517 Q 132.525 50.391 132.25 50.265 Q 131.76 50.092 131.066 49.761 Q 131.061 49.527 130.933 49.395 Q 130.806 49.263 130.677 49.218 Q 130.311 48.857 130.233 48.38 Q 130.155 47.903 130.112 47.366 Q 130.083 47.037 130.04 46.746 Q 129.998 46.456 129.934 46.144 L 130.418 46.169 L 130.069 45.35 Q 130.044 45.255 129.99 45.163 Q 129.935 45.071 129.911 44.976 L 130.03 44.554 Q 130.58 42.747 131.116 41.269 Q 131.651 39.791 132.447 38.767 L 132.547 38.483 Q 132.824 37.943 133.034 37.596 Q 133.243 37.249 133.412 36.932 Q 133.69 36.392 134.017 35.957 Q 134.406 36.007 134.663 35.851 Q 134.921 35.696 135.114 35.56 Q 135.484 35.662 135.567 35.836 Q 135.651 36.011 135.68 36.34 Q 135.727 36.617 135.82 36.969 Q 135.914 37.321 136.246 37.612 Q 136.225 37.837 136.238 38.088 Q 136.251 38.339 136.263 38.633 Q 136.315 39.144 136.314 39.68 Q 136.314 40.216 136.185 40.664 Q 135.755 41.063 135.386 41.658 Q 135.016 42.252 134.746 42.896 Q 134.476 43.54 134.326 44.169 Q 134.177 44.798 134.187 45.265 L 134.223 45.655 L 134.68 45.758 Q 135.526 45.824 136.244 45.802 Q 136.962 45.78 137.622 45.635 Q 138.282 45.491 138.931 45.212 Q 139.58 44.934 140.331 44.531 Q 141.081 44.129 141.749 43.509 Q 142.417 42.889 142.979 42.16 Q 143.54 41.43 143.968 40.667 Q 144.397 39.905 144.703 39.201 Q 145.196 39.201 145.359 38.737 L 145.408 38.435 Q 145.359 38.244 145.535 38.074 Q 145.862 37.638 146.521 37.58 Q 146.842 37.984 147.056 38.407 Q 147.269 38.83 147.443 39.239 Z M 149.01 56.337 Q 148.219 56.194 147.307 55.988 Q 146.395 55.781 145.598 55.357 Q 144.391 54.714 144.013 53.738 Q 144.034 53.408 143.988 53.26 Q 143.967 53.125 143.965 52.984 Q 143.962 52.844 144.041 52.638 Q 143.931 52.146 144 51.609 Q 144.069 51.073 144.259 50.57 Q 144.45 50.067 144.743 49.604 Q 145.036 49.14 145.388 48.77 Q 145.488 48.699 145.551 48.609 Q 145.615 48.519 145.703 48.411 Q 146.005 48.076 146.307 47.772 Q 146.608 47.468 146.942 47.305 Q 146.962 47.037 147.199 46.823 Q 147.437 46.609 147.674 46.456 Q 148.5 45.718 149.07 45.201 Q 149.64 44.683 150.215 44.184 Q 151.204 43.317 152.131 42.448 Q 153.059 41.578 154.004 40.502 Q 154.261 40.484 154.383 40.487 Q 154.554 40.516 154.663 40.543 Q 154.982 40.992 155.452 41.505 Q 155.922 42.019 156.308 42.224 Q 156.437 42.448 156.453 42.534 Q 156.469 42.62 156.492 42.694 Q 156.59 43.149 156.61 43.578 Q 156.63 44.006 156.274 44.499 Q 156.014 44.639 155.942 44.6 Q 155.564 45.019 155.251 45.286 Q 154.938 45.553 154.614 45.814 Q 154.252 46.086 153.914 46.371 Q 153.577 46.656 153.198 47.136 Q 153.037 47.205 152.949 47.282 Q 152.862 47.359 152.749 47.454 Q 152.637 47.549 152.505 47.65 Q 152.374 47.751 152.202 47.783 Q 151.796 48.372 151.433 48.674 Q 151.071 48.977 150.696 49.273 Q 150.034 49.819 149.432 50.397 Q 148.83 50.975 148.306 51.842 Q 148.453 51.858 148.561 51.916 Q 148.67 51.974 148.766 52.025 Q 148.984 52.141 149.235 52.367 Q 150.164 52.367 151.06 52.75 Q 151.955 53.134 152.813 53.56 Q 153.15 53.74 153.488 53.92 Q 153.826 54.1 154.142 54.206 Q 154.295 54.442 154.348 54.486 Q 154.402 54.53 154.523 54.595 Q 154.692 54.685 154.8 54.773 Q 154.948 55.193 155.149 55.455 Q 155.351 55.717 155.589 55.968 Q 155.803 56.206 155.998 56.449 Q 156.194 56.693 156.333 57.014 L 155.949 58.142 Q 156.002 58.449 155.939 58.509 Q 155.837 58.702 155.689 58.747 L 155.596 59.038 Q 155.195 58.918 155.011 58.944 Q 154.827 58.97 154.642 59.026 Q 154.436 58.947 154.351 58.902 Q 154.267 58.857 154.194 58.819 Q 153.857 58.639 153.31 58.502 Q 152.774 57.938 152.074 57.566 Q 151.808 57.424 151.506 57.294 Q 151.203 57.164 150.901 57.034 Q 150.585 56.928 150.271 56.791 Q 149.956 56.655 149.643 56.488 Z M 170.711 62.861 Q 170.608 62.955 170.529 63.016 Q 170.45 63.076 170.379 63.126 Q 170.309 63.176 170.235 63.275 Q 170.162 63.374 170.048 63.528 Q 168.527 64.205 166.941 64.256 Q 165.356 64.307 163.711 64.025 Q 162.065 63.743 160.402 63.278 Q 158.74 62.813 157.086 62.474 Q 156.656 61.952 156.609 61.441 Q 156.562 60.93 156.72 60.417 Q 156.878 59.905 157.189 59.37 Q 157.5 58.834 157.846 58.274 Q 158.091 58.081 158.334 58.006 Q 158.577 57.931 158.805 57.623 Q 159.403 57.181 159.986 56.762 Q 160.568 56.343 161.035 55.804 Q 161.231 55.677 161.456 55.741 Q 162.346 54.767 163.052 53.606 Q 163.759 52.445 164.194 51.304 Q 164.379 51.101 164.485 51.026 Q 164.591 50.952 164.58 50.875 Q 164.688 50.683 164.831 50.789 Q 164.974 50.894 165.127 51.008 Q 165.371 50.679 165.495 50.259 Q 165.618 49.84 165.817 49.341 Q 166.215 49.125 166.494 48.839 Q 166.774 48.553 167.107 48.425 Q 168.017 49.677 168.715 51.01 Q 169.413 52.342 170.289 53.365 Q 170.657 54.522 171.078 55.7 Q 171.498 56.879 171.684 58.054 Q 171.869 59.228 171.696 60.427 Q 171.524 61.626 170.711 62.861 Z M 164.607 60.216 Q 165.199 60.381 165.796 60.517 Q 166.393 60.653 166.965 60.685 Q 167.536 60.716 168.088 60.614 Q 168.64 60.512 169.179 60.197 Q 169.242 59.836 169.177 59.464 Q 169.112 59.093 169.03 58.743 Q 168.949 58.394 168.886 58.042 Q 168.824 57.689 168.903 57.306 Q 168.65 57.05 168.52 56.767 Q 168.39 56.483 168.27 56.208 Q 168.151 55.933 168.001 55.652 Q 167.852 55.371 167.56 55.122 Q 167.256 54.522 166.952 54.127 Q 166.649 53.733 166.581 53.411 Q 166.427 53.297 166.291 53.298 Q 165.893 54.296 165.458 55.113 Q 165.023 55.931 164.489 56.675 Q 163.955 57.42 163.298 58.124 Q 162.641 58.828 161.82 59.616 Q 162.056 59.756 162.3 59.818 Q 162.543 59.879 162.795 59.929 Q 163.047 59.98 163.313 60.057 Q 163.579 60.135 163.881 60.324 Q 164.044 60.241 164.23 60.243 Q 164.416 60.244 164.607 60.216 Z" transform="matrix(1.379804015159607, 0, 0, 1.379804015159607, -38.555206298828125, -15.14532470703125)" style="fill: rgb(28, 28, 28);"/>
  <path d="M 39.73 72.141 Q 39.831 72.294 39.758 72.473 Q 39.686 72.652 39.607 72.733 Q 38.866 73.03 38.577 73.147 Q 38.288 73.264 38.155 73.329 Q 38.022 73.394 37.898 73.417 Q 37.775 73.44 37.353 73.512 Q 35.919 73.533 34.507 73.378 Q 33.095 73.222 31.756 72.698 Q 31.416 72.848 30.822 72.646 Q 30.228 72.444 29.724 72.277 Q 29.657 72.175 29.693 72.086 Q 29.729 71.996 29.662 71.894 Q 29.501 72.117 29.305 72.019 Q 29.109 71.921 28.899 71.656 Q 28.688 71.392 28.496 71.043 Q 28.303 70.694 28.172 70.429 Q 27.944 70.549 27.705 70.663 Q 27.465 70.777 27.234 70.738 Q 27.002 70.54 26.885 70.441 Q 26.769 70.341 26.582 70.391 Q 26.481 70.238 26.453 70.095 Q 26.426 69.953 26.391 69.822 Q 26.356 69.691 26.291 69.558 Q 26.226 69.426 26.064 69.268 Q 26.166 69.201 26.188 68.945 Q 26.21 68.689 26.048 68.532 Q 26.239 68.422 26.206 68.07 Q 26.172 67.719 26.256 67.357 Q 26.455 67.124 26.657 66.83 Q 26.859 66.537 27.146 66.64 Q 27.219 66.461 27.24 66.315 Q 27.261 66.17 27.283 66.024 Q 27.531 65.978 27.718 65.818 Q 27.906 65.658 28.077 65.473 Q 28.247 65.288 28.442 65.116 Q 28.636 64.944 28.908 64.912 Q 29.532 64.326 29.85 64.052 Q 30.167 63.778 30.418 63.481 Q 30.67 63.184 30.972 62.854 Q 31.274 62.523 31.816 62.079 Q 31.999 61.711 32.251 61.494 Q 32.504 61.277 32.768 61.066 Q 33.032 60.856 33.275 60.602 Q 33.517 60.347 33.656 59.89 Q 33.311 59.722 33.052 59.84 Q 32.794 59.959 32.554 60.263 Q 32.255 60.342 31.99 60.173 Q 31.725 60.003 31.471 59.95 Q 30.836 59.139 30.648 58.208 Q 30.461 57.278 30.611 56.258 Q 31.139 55.837 31.777 55.718 Q 32.416 55.598 33.104 55.666 Q 33.792 55.733 34.496 55.936 Q 35.2 56.139 35.85 56.327 Q 36.869 56.696 37.914 57.019 Q 38.96 57.341 39.983 58.03 Q 40.166 58.041 40.374 58.146 Q 40.582 58.251 40.795 58.374 Q 41.008 58.498 41.216 58.603 Q 41.424 58.707 41.607 58.719 Q 41.643 58.929 41.847 59.095 Q 42.051 59.261 42.201 59.601 Q 42.609 59.553 42.741 59.788 Q 42.873 60.023 42.957 60.261 Q 43.04 60.499 43.125 60.706 Q 43.21 60.914 43.376 61.01 Q 43.418 61.319 43.556 61.652 Q 43.695 61.985 43.803 62.317 Q 43.911 62.648 43.927 62.974 Q 43.944 63.3 43.765 63.607 Q 43.673 63.712 43.754 63.79 Q 43.835 63.869 43.841 63.967 Q 43.439 64.714 42.882 65.102 Q 42.325 65.49 41.697 65.727 Q 41.07 65.963 40.399 66.111 Q 39.728 66.26 39.113 66.503 Q 39.171 66.948 39.341 67.363 Q 39.511 67.778 39.693 68.199 Q 39.876 68.621 40.008 69.046 Q 40.141 69.471 40.125 69.935 Q 40.144 70.01 40.195 70.087 Q 40.245 70.163 40.289 70.252 Q 40.222 70.529 40.196 70.846 Q 40.171 71.163 40.123 71.436 Q 40.075 71.709 39.996 71.9 Q 39.917 72.091 39.73 72.141 Z M 40.151 61.826 Q 38.973 61.079 37.627 60.646 Q 36.282 60.213 35.204 60.219 Q 35.413 60.784 35.676 61.284 Q 35.939 61.784 35.915 62.371 Q 37.057 62.528 38.103 62.36 Q 39.148 62.192 40.151 61.826 Z M 36.081 69.549 Q 36.289 69.354 36.561 69.321 Q 36.832 69.289 37.097 69.269 Q 37.362 69.249 37.593 69.177 Q 37.824 69.106 37.965 68.808 Q 37.441 67.967 36.863 67.521 Q 36.284 67.074 35.68 66.835 Q 35.076 66.595 34.472 66.465 Q 33.867 66.336 33.306 66.105 Q 32.648 66.64 31.897 67.279 Q 31.147 67.919 30.447 68.524 Q 31.212 68.841 31.92 68.984 Q 32.628 69.126 33.321 69.212 Q 34.014 69.298 34.69 69.358 Q 35.366 69.419 36.081 69.549 Z M 56.509 64.371 Q 56.498 64.564 56.466 64.655 Q 56.434 64.746 56.404 64.824 Q 56.374 64.902 56.355 64.996 Q 56.336 65.089 56.352 65.288 Q 55.605 66.086 54.801 66.272 Q 53.996 66.458 53.108 66.432 Q 52.221 66.407 51.291 66.386 Q 50.36 66.366 49.368 66.724 Q 49.046 66.519 48.738 66.596 Q 48.429 66.674 47.904 66.512 Q 47.711 66.64 47.456 66.659 Q 47.201 66.677 46.944 66.709 Q 47.002 66.971 46.937 67.223 Q 46.873 67.475 46.921 67.652 Q 47.843 67.922 49.003 68.045 Q 50.164 68.167 51.268 68.362 Q 51.268 68.502 51.206 68.531 Q 51.145 68.561 51.15 68.673 Q 51.311 68.845 51.458 69.084 Q 51.605 69.323 51.754 69.548 Q 51.904 69.774 52.081 69.935 Q 52.258 70.096 52.531 70.124 Q 52.595 70.36 52.584 70.622 Q 52.573 70.885 52.411 71.131 Q 51.923 71.34 51.432 71.561 Q 50.941 71.783 50.423 71.93 Q 49.905 72.076 49.353 72.118 Q 48.8 72.16 48.163 72.004 Q 48.029 71.976 47.962 71.963 Q 47.895 71.949 47.804 71.847 Q 47.562 71.938 47.184 71.806 Q 46.806 71.674 46.565 71.765 Q 46.297 71.571 45.879 71.501 Q 45.461 71.43 45.161 71.258 Q 44.618 71.735 44.14 72.308 Q 43.662 72.881 43.248 73.55 Q 44.132 73.868 44.74 73.963 Q 45.349 74.058 45.899 74.099 Q 46.448 74.14 47.025 74.187 Q 47.601 74.233 48.453 74.433 Q 49.049 74.247 49.805 74.302 Q 50.561 74.357 51.221 74.267 Q 51.419 74.39 51.539 74.624 Q 51.659 74.857 51.772 75.061 Q 51.884 75.265 52.018 75.432 Q 52.151 75.598 52.398 75.62 Q 52.484 75.749 52.494 75.904 Q 52.505 76.06 52.504 76.199 Q 52.504 76.339 52.552 76.446 Q 52.6 76.553 52.766 76.559 Q 52.186 77.362 51.569 77.726 Q 50.951 78.09 50.232 78.196 Q 49.514 78.302 48.669 78.271 Q 47.825 78.24 46.795 78.227 Q 46.543 78.232 46.396 78.133 Q 46.248 78.033 46.034 77.99 Q 45.39 77.999 44.511 77.934 Q 43.632 77.868 42.753 77.662 Q 41.873 77.457 41.11 77.094 Q 40.346 76.73 39.94 76.118 Q 39.763 75.887 39.748 75.619 Q 39.732 75.351 39.464 75.158 Q 39.508 74.804 39.514 74.359 Q 39.52 73.914 39.534 73.428 Q 39.549 72.943 39.6 72.479 Q 39.652 72.016 39.808 71.657 Q 39.97 71.271 40.289 71 Q 40.609 70.73 40.604 70.339 Q 40.744 70.339 40.795 70.224 Q 40.846 70.109 41.028 70.173 Q 41.286 69.723 41.561 69.332 Q 41.835 68.941 42.117 68.58 Q 42.399 68.218 42.684 67.843 Q 42.969 67.468 43.259 66.997 Q 42.954 66.573 42.864 66.122 Q 42.773 65.672 42.777 65.24 Q 42.78 64.808 42.816 64.355 Q 42.852 63.902 42.81 63.419 Q 43.159 63.072 43.599 62.895 Q 44.039 62.719 44.527 62.65 Q 45.015 62.581 45.573 62.582 Q 46.13 62.583 46.747 62.568 Q 47.89 62.436 48.772 62.419 Q 49.654 62.402 50.496 62.446 Q 51.338 62.491 52.244 62.562 Q 53.15 62.633 54.319 62.646 Q 54.512 62.936 54.726 62.979 Q 54.882 62.759 55.01 62.883 Q 55.139 63.007 55.161 62.76 Q 55.337 63.27 55.69 63.662 Q 56.043 64.054 56.509 64.371 Z" transform="matrix(1.379804015159607, 0, 0, 1.379804015159607, -19.392066955566406, -16.22917938232422)" style="fill: rgb(28, 28, 28);"/>
  <path d="M 83.173 91.646 Q 80.766 91.318 80.247 89.103 L 80.274 88.803 Q 80.384 88.474 80.52 88.064 Q 80.657 87.599 80.821 87.148 Q 80.985 86.697 81.368 86.342 Q 81.45 86.096 81.682 85.59 Q 81.915 85.084 82.462 84.072 Q 82.899 83.279 83.159 82.814 Q 83.419 82.349 83.583 82.103 Q 83.309 81.611 82.817 81.146 Q 82.38 80.326 82.065 79.574 Q 81.751 78.822 81.587 78.221 Q 81.559 77.564 81.368 76.881 Q 81.286 76.525 81.204 76.17 Q 81.122 75.814 81.122 75.432 Q 81.013 75.24 80.931 74.939 L 80.985 74.611 Q 81.122 74.392 81.054 74.023 Q 80.985 73.654 80.876 73.271 Q 80.794 72.916 80.725 72.519 Q 80.657 72.123 80.684 71.74 Q 80.712 71.357 80.89 71.002 Q 81.067 70.646 81.505 70.4 L 81.778 70.209 L 82.052 70.373 Q 82.352 70.564 82.626 70.701 Q 82.899 70.838 83.173 70.974 Q 83.501 71.139 83.829 71.316 Q 84.157 71.494 84.54 71.713 L 84.813 71.904 L 84.786 72.205 Q 84.786 72.26 84.813 72.342 Q 84.841 72.424 84.895 72.478 L 85.196 72.56 L 85.223 72.943 L 85.223 73.271 Q 85.223 73.517 85.251 73.613 Q 85.278 73.709 85.36 73.818 L 85.497 74.174 Q 85.497 74.666 85.579 75.049 Q 85.661 75.432 85.77 75.814 Q 85.907 76.197 85.989 76.594 Q 86.071 76.99 86.016 77.455 Q 86.181 77.373 86.345 77.209 Q 86.399 77.154 86.468 77.099 Q 86.536 77.045 86.618 76.99 L 88.532 74.392 L 88.477 74.064 L 89.161 73.408 Q 89.434 73.189 89.681 72.957 Q 89.927 72.724 90.091 72.424 L 90.255 72.178 Q 91.485 70.537 93.427 70.154 L 93.891 70.045 L 94.028 70.482 Q 94.165 70.865 94.561 71.152 Q 94.958 71.439 95.423 71.713 L 95.723 71.904 Q 95.888 72.232 95.888 72.396 Q 95.888 72.56 95.86 72.67 L 95.997 73.025 Q 95.696 73.818 95.341 74.16 Q 94.985 74.502 94.602 74.803 Q 94.302 75.049 94.056 75.295 Q 93.809 75.541 93.673 75.842 L 93.454 76.115 Q 92.77 76.471 92.579 77.154 L 92.47 77.537 L 92.059 77.537 Q 92.032 77.537 91.923 77.66 Q 91.813 77.783 91.595 78.248 Q 91.348 78.576 91.253 78.672 Q 91.157 78.767 91.102 78.822 Q 91.048 78.959 91.007 79.068 Q 90.966 79.178 90.911 79.342 L 90.747 79.56 Q 90.501 79.779 90.391 79.984 Q 90.282 80.189 90.145 80.463 Q 90.036 80.709 89.899 80.969 Q 89.763 81.228 89.516 81.474 L 89.571 81.775 L 89.352 81.967 Q 89.134 82.158 88.97 82.445 Q 88.806 82.732 88.641 83.033 Q 88.477 83.361 88.286 83.689 Q 88.095 84.017 87.794 84.291 Q 87.602 84.783 87.452 85.057 Q 87.302 85.33 86.946 85.713 Q 86.618 87.025 85.388 88.529 Q 85.36 88.83 85.21 89.117 Q 85.059 89.404 84.895 89.65 Q 84.841 89.76 84.772 89.883 Q 84.704 90.006 84.677 90.06 L 84.595 90.361 Q 84.431 90.662 84.253 90.853 Q 84.075 91.045 83.911 91.209 Q 83.829 91.264 83.761 91.346 Q 83.692 91.428 83.638 91.482 Z M 99.019 90.749 Q 97.824 90.963 96.829 90.731 Q 95.834 90.5 95.031 89.959 Q 94.228 89.418 93.635 88.649 Q 93.041 87.88 92.648 86.994 Q 92.324 85.146 92.643 83.614 Q 92.962 82.082 93.645 80.767 Q 94.329 79.452 95.225 78.292 Q 96.12 77.132 96.951 76.057 Q 97.145 76.131 97.265 76.044 Q 97.384 75.957 97.474 75.816 Q 97.564 75.676 97.681 75.534 Q 97.798 75.392 97.96 75.331 Q 98.059 75.08 98.23 74.909 Q 98.4 74.737 98.599 74.578 Q 98.797 74.42 98.968 74.248 Q 99.139 74.077 99.265 73.825 Q 99.536 73.759 99.735 73.614 Q 99.934 73.469 100.105 73.297 Q 100.276 73.126 100.461 72.981 Q 100.647 72.837 100.916 72.743 L 100.901 72.388 Q 101.491 72.089 101.75 71.75 Q 102.01 71.411 102.37 70.876 Q 102.67 70.836 102.847 70.828 Q 103.025 70.821 103.405 70.75 Q 103.631 70.275 103.841 70.048 Q 104.05 69.82 104.448 69.529 Q 104.867 69.731 105.334 69.752 Q 105.8 69.774 106.198 70.14 Q 106.239 70.467 106.411 70.637 Q 106.582 70.808 106.78 70.95 Q 106.977 71.092 107.175 71.248 Q 107.374 71.404 107.441 71.702 Q 107.577 71.697 107.616 71.64 Q 107.655 71.584 107.793 71.606 Q 107.856 71.822 107.917 71.956 Q 107.977 72.09 108.05 72.197 Q 108.123 72.303 108.197 72.437 Q 108.271 72.571 108.334 72.76 Q 108.211 73.093 108.117 73.467 Q 108.023 73.84 107.701 73.99 Q 107.71 74.209 107.875 74.216 Q 108.039 74.222 108.075 74.413 Q 108.112 74.657 108.01 74.826 Q 108.829 76.078 109.517 77.458 Q 110.204 78.839 111.05 80.089 Q 111.012 80.474 111.123 80.839 Q 111.234 81.204 111.399 81.553 Q 111.564 81.901 111.716 82.251 Q 111.867 82.6 111.937 82.953 Q 112.011 83.415 111.979 83.95 Q 111.947 84.485 111.804 84.984 Q 111.66 85.483 111.405 85.918 Q 111.15 86.352 110.804 86.586 Q 110.389 87.151 109.748 87.52 Q 109.107 87.889 108.58 88.376 Q 108.207 88.611 107.774 88.725 Q 107.34 88.839 106.881 88.968 Q 106.535 89.201 106.052 89.427 Q 105.568 89.652 105.056 89.838 Q 104.544 90.024 104.029 90.141 Q 103.514 90.259 103.102 90.221 Q 102.133 90.618 101.21 90.794 Q 100.287 90.969 99.019 90.749 Z M 98.956 80.79 Q 98.709 81.429 98.361 81.95 Q 98.014 82.471 97.681 83.005 Q 97.347 83.539 97.112 84.138 Q 96.878 84.736 96.884 85.529 Q 97.449 85.971 98.205 86.035 Q 98.96 86.099 99.75 85.997 Q 100.539 85.896 101.325 85.726 Q 102.112 85.556 102.74 85.529 Q 102.73 85.283 102.949 85.274 Q 104.091 85.117 105.052 84.543 Q 106.014 83.969 107.056 83.377 Q 107.179 83.044 107.387 82.789 Q 107.595 82.534 107.603 82.068 Q 107.456 81.828 107.408 81.666 Q 107.36 81.504 107.347 81.176 Q 106.595 80.222 106.027 79.083 Q 105.459 77.944 104.733 76.934 Q 104.684 77.073 104.525 77.216 Q 104.367 77.36 104.168 77.177 Q 104.098 77.453 103.938 77.556 Q 103.778 77.658 103.573 77.667 Q 103.368 77.676 103.16 77.602 Q 102.951 77.529 102.782 77.399 Q 101.858 78.204 100.945 78.954 Q 100.032 79.704 99.308 80.693 Q 99.174 80.78 99.146 80.754 Q 99.117 80.728 98.956 80.79 Z M 114.838 76.553 Q 114.789 76.196 114.709 76.113 Q 114.909 75.624 115.013 75.147 Q 115.118 74.671 115.18 74.234 Q 115.242 73.853 115.316 73.526 Q 115.39 73.199 115.505 72.9 Q 115.972 72.799 116.209 72.516 Q 116.447 72.233 116.588 72.017 Q 117.08 71.999 117.228 72.165 Q 117.375 72.332 117.56 72.718 Q 117.691 73.022 117.931 73.368 Q 118.171 73.714 118.659 73.914 Q 118.736 74.216 118.84 74.492 Q 118.945 74.767 119.076 75.07 Q 119.312 75.649 119.519 76.268 Q 119.727 76.887 119.744 77.434 Q 119.405 78.057 119.213 78.874 Q 119.02 79.691 118.964 80.524 Q 118.908 81.357 118.976 82.124 Q 119.045 82.891 119.227 83.414 L 119.383 83.855 L 119.985 83.811 Q 120.974 83.582 121.772 83.282 Q 122.571 82.982 123.262 82.557 Q 123.954 82.132 124.592 81.583 Q 125.231 81.034 125.929 80.28 Q 126.599 79.527 127.135 78.566 Q 127.672 77.604 128.033 76.572 Q 128.393 75.539 128.603 74.503 Q 128.813 73.468 128.884 72.567 Q 129.408 72.33 129.473 71.784 L 129.397 71.427 Q 129.318 71.289 129.334 71.166 Q 129.349 71.044 129.406 70.935 Q 129.636 70.31 130.352 70.023 Q 130.839 70.359 131.255 70.75 Q 131.672 71.14 132.021 71.529 Q 132.062 72.269 132.217 72.805 Q 132.371 73.341 132.554 73.836 Q 132.737 74.304 132.879 74.745 Q 133.022 75.185 133.065 75.815 Q 132.777 76.63 132.641 77.352 Q 132.505 78.074 132.381 78.865 L 132.321 79.165 Q 131.813 80.004 131.319 80.883 Q 130.825 81.763 130.512 82.414 Q 130.345 82.575 130.218 82.792 Q 130.091 83.008 129.978 83.225 Q 129.922 83.306 129.822 83.496 Q 129.723 83.685 129.64 83.766 L 128.988 83.508 L 128.809 84.353 L 128.369 84.454 L 128.034 84.831 Q 127.386 85.913 126.676 86.639 Q 125.965 87.364 125.094 87.923 Q 124.222 88.482 123.133 88.968 Q 122.044 89.454 120.639 90.003 Q 120.094 89.911 119.698 89.89 Q 119.302 89.87 118.919 89.835 Q 118.537 89.829 118.182 89.795 Q 117.827 89.761 117.363 89.698 Q 117.258 89.45 117.069 89.337 Q 116.879 89.224 116.715 89.221 Q 116.173 88.938 115.909 88.441 Q 115.644 87.944 115.354 87.337 Q 115.224 87.007 115.079 86.676 Q 114.935 86.345 114.721 86.04 L 115.271 85.886 L 114.575 85.053 Q 114.495 84.97 114.4 84.886 Q 114.306 84.802 114.226 84.691 L 114.236 84.172 Q 114.167 81.928 114.214 80.028 Q 114.262 78.129 114.781 76.688 Z" transform="matrix(2.118506908416748, 0, 0, 2.118506908416748, -102.47582244873047, -72.50617980957031)" style="fill: rgb(28, 28, 28);"/>
</svg>