<svg width="373" height="75" viewBox="0 0 373 75" fill="none" xmlns="http://www.w3.org/2000/svg">
<path d="M11.6784 13.8021C16 13.8021 19.332 14.8577 21.6742 16.9691C24.0165 19.0474 25.1876 21.9835 25.1876 25.7773C25.1876 29.6371 24.033 32.6392 21.7237 34.7835C19.4144 36.9278 15.967 38 11.3814 38H3.36495V13.8021H11.6784ZM11.5299 17.5629H7.47217V34.1402H11.9753C14.9443 34.1402 17.2041 33.4474 18.7546 32.0619C20.3052 30.6433 21.0804 28.5814 21.0804 25.8763C21.0804 20.334 17.8969 17.5629 11.5299 17.5629ZM47.4345 13.8021V17.6124H34.519V24.0454H46.0984V27.6577H34.519V34.1402H47.8304V38H30.4118V13.8021H47.4345ZM67.1555 29.1918L73.4896 38H68.2937L62.504 29.8351H57.1597V38H53.0524V13.8021H62.0586C65.7205 13.8021 68.3432 14.4289 69.9267 15.6825C71.5432 16.9031 72.3514 18.899 72.3514 21.6701C72.3514 25.6619 70.6195 28.1691 67.1555 29.1918ZM62.2071 26.1732C64.4834 26.1732 66.0504 25.8268 66.9081 25.134C67.7659 24.4412 68.1947 23.2701 68.1947 21.6206C68.1947 20.0371 67.7659 18.9649 66.9081 18.4041C66.0504 17.8103 64.5164 17.5134 62.3061 17.5134H57.1597V26.1732H62.2071ZM92.3743 29.1918L98.7083 38H93.5124L87.7227 29.8351H82.3784V38H78.2712V13.8021H87.2774C90.9392 13.8021 93.5619 14.4289 95.1454 15.6825C96.7619 16.9031 97.5702 18.899 97.5702 21.6701C97.5702 25.6619 95.8382 28.1691 92.3743 29.1918ZM87.4258 26.1732C89.7021 26.1732 91.2691 25.8268 92.1269 25.134C92.9846 24.4412 93.4135 23.2701 93.4135 21.6206C93.4135 20.0371 92.9846 18.9649 92.1269 18.4041C91.2691 17.8103 89.7351 17.5134 87.5248 17.5134H82.3784V26.1732H87.4258ZM103.49 13.8021H107.597V38H103.49V13.8021ZM132.135 31.3196L134.758 33.9918C132.251 36.8619 129.15 38.2969 125.455 38.2969C121.793 38.2969 118.741 37.1258 116.3 34.7835C113.892 32.4082 112.688 29.4227 112.688 25.8268C112.688 22.1979 113.925 19.1959 116.399 16.8206C118.873 14.4124 121.991 13.2082 125.752 13.2082C129.446 13.2082 132.564 14.5938 135.104 17.3649L132.531 20.1856C131.376 19.0639 130.288 18.2887 129.265 17.8598C128.242 17.4309 127.038 17.2165 125.653 17.2165C123.178 17.2165 121.1 18.0082 119.418 19.5918C117.768 21.1753 116.943 23.1876 116.943 25.6289C116.943 28.0371 117.768 30.0825 119.418 31.7649C121.067 33.4474 123.03 34.2887 125.306 34.2887C126.692 34.2887 127.879 34.0577 128.869 33.5959C129.892 33.134 130.98 32.3753 132.135 31.3196ZM139.771 13.8021H143.878V25.5794L154.963 13.8021H160.109L150.41 24.3918L160.258 38H155.408L147.392 27.4103L143.878 31.2206V38H139.771V13.8021Z" fill="black"/>
<path d="M224.665 50.5896V50.8865C224.665 53.1781 224.149 54.9958 223.118 56.3396C222.086 57.6833 220.665 58.3552 218.852 58.3552C216.727 58.3552 215.133 57.5792 214.071 56.0271V63.9177H212.383V42.8552H213.805L214.024 45.2146C215.055 43.4542 216.654 42.574 218.821 42.574C220.644 42.574 222.071 43.2979 223.102 44.7458C224.144 46.1833 224.665 48.1313 224.665 50.5896ZM222.977 50.8708V50.5896C222.977 48.5896 222.586 46.9958 221.805 45.8083C221.024 44.6208 219.904 44.0271 218.446 44.0271C216.362 44.0271 214.909 45.0011 214.086 46.949V54.2615C214.92 56.0531 216.383 56.949 218.477 56.949C219.925 56.949 221.034 56.4073 221.805 55.324C222.586 54.2302 222.977 52.7458 222.977 50.8708ZM235.118 41.9021C238.43 41.9021 240.086 43.9438 240.086 48.0271V57.4021H238.399V47.9958C238.399 44.9125 237.18 43.3708 234.743 43.3708C233.607 43.3708 232.649 43.6625 231.868 44.2458C231.086 44.8292 230.508 45.6417 230.133 46.6833V57.4021H228.446V35.4646H230.133L230.118 44.7927C231.191 42.8656 232.857 41.9021 235.118 41.9021ZM245.227 49.6052V50.0583C245.227 51.8917 245.68 53.3917 246.586 54.5583C247.493 55.725 248.722 56.3083 250.274 56.3083C251.826 56.3083 253.055 55.725 253.961 54.5583C254.868 53.3813 255.321 51.8813 255.321 50.0583V49.6052C255.321 47.8136 254.862 46.3292 253.946 45.1521C253.029 43.9646 251.8 43.3708 250.258 43.3708C248.717 43.3708 247.493 43.9594 246.586 45.1365C245.68 46.3136 245.227 47.8031 245.227 49.6052ZM243.54 50.0583V49.6052C243.54 47.3344 244.154 45.4906 245.383 44.074C246.612 42.6469 248.237 41.9333 250.258 41.9333C252.279 41.9333 253.904 42.6469 255.133 44.074C256.373 45.4906 256.993 47.3344 256.993 49.6052V50.0583C256.993 52.3292 256.378 54.1781 255.149 55.6052C253.93 57.0219 252.305 57.7302 250.274 57.7302C248.243 57.7302 246.612 57.0219 245.383 55.6052C244.154 54.1886 243.54 52.3396 243.54 50.0583ZM261.461 38.324H263.149V42.2146H266.508V43.5896H263.149V53.5115C263.149 55.3344 263.81 56.2458 265.133 56.2458C265.685 56.2458 266.248 56.199 266.821 56.1052L267.086 57.3552C266.482 57.6052 265.732 57.7302 264.836 57.7302C262.586 57.7302 261.461 56.324 261.461 53.5115V43.5896H258.821V42.2146H261.461V38.324ZM270.821 49.6052V50.0583C270.821 51.8917 271.274 53.3917 272.18 54.5583C273.086 55.725 274.316 56.3083 275.868 56.3083C277.42 56.3083 278.649 55.725 279.555 54.5583C280.461 53.3813 280.915 51.8813 280.915 50.0583V49.6052C280.915 47.8136 280.456 46.3292 279.54 45.1521C278.623 43.9646 277.394 43.3708 275.852 43.3708C274.31 43.3708 273.086 43.9594 272.18 45.1365C271.274 46.3136 270.821 47.8031 270.821 49.6052ZM269.133 50.0583V49.6052C269.133 47.3344 269.748 45.4906 270.977 44.074C272.206 42.6469 273.831 41.9333 275.852 41.9333C277.873 41.9333 279.498 42.6469 280.727 44.074C281.967 45.4906 282.586 47.3344 282.586 49.6052V50.0583C282.586 52.3292 281.972 54.1781 280.743 55.6052C279.524 57.0219 277.899 57.7302 275.868 57.7302C273.836 57.7302 272.206 57.0219 270.977 55.6052C269.748 54.1886 269.133 52.3396 269.133 50.0583ZM291.336 42.574C293.43 42.574 295.014 43.4802 296.086 45.2927L296.29 42.8552H297.711V57.8708C297.711 59.85 297.17 61.4021 296.086 62.5271C295.003 63.6521 293.498 64.2146 291.571 64.2146C290.821 64.2146 290.034 64.1261 289.211 63.949C288.389 63.7719 287.675 63.5271 287.071 63.2146L287.493 61.7927C288.722 62.4073 290.071 62.7146 291.54 62.7146C293.008 62.7146 294.123 62.2927 294.883 61.449C295.644 60.6156 296.024 59.4229 296.024 57.8708V55.9646C294.93 57.5688 293.357 58.3708 291.305 58.3708C289.482 58.3708 288.05 57.699 287.008 56.3552C285.967 55.0011 285.446 53.1781 285.446 50.8865L285.461 50.5896C285.461 48.1313 285.982 46.1833 287.024 44.7458C288.066 43.2979 289.503 42.574 291.336 42.574ZM287.133 50.6052V50.8865C287.133 52.7615 287.514 54.2354 288.274 55.3083C289.034 56.3813 290.144 56.9177 291.602 56.9177C293.696 56.9177 295.165 55.9854 296.008 54.1208V47.0583C295.175 45.0479 293.717 44.0427 291.633 44.0427C290.185 44.0427 289.071 44.6365 288.29 45.824C287.519 47.0115 287.133 48.6052 287.133 50.6052ZM303.868 57.4021H302.18V42.1833H303.665L303.868 44.7146V44.8865C304.826 42.8969 306.3 41.9021 308.29 41.9021C308.675 41.9021 309.045 41.9542 309.399 42.0583L309.18 43.6365L307.93 43.5427C306.899 43.5427 306.04 43.8344 305.352 44.4177C304.665 45.0011 304.17 45.8292 303.868 46.9021V57.4021ZM315.883 57.7458C314.415 57.7458 313.269 57.3604 312.446 56.5896C311.623 55.8083 311.211 54.7302 311.211 53.3552C311.211 51.9698 311.816 50.8604 313.024 50.0271C314.243 49.1833 315.883 48.7615 317.946 48.7615H321.305V46.8708C321.305 45.7771 320.956 44.9229 320.258 44.3083C319.56 43.6938 318.602 43.3865 317.383 43.3865C316.175 43.3865 315.18 43.6781 314.399 44.2615C313.628 44.8448 313.243 45.5688 313.243 46.4333L311.696 46.4177L311.665 46.3396C311.612 45.1729 312.139 44.1521 313.243 43.2771C314.357 42.3917 315.758 41.949 317.446 41.949C319.133 41.949 320.477 42.3813 321.477 43.2458C322.477 44.1104 322.977 45.3292 322.977 46.9021V54.3865C322.977 55.4386 323.107 56.4542 323.368 57.4333L321.602 57.4646C321.394 56.5479 321.29 55.7198 321.29 54.9802C320.696 55.8136 319.93 56.4854 318.993 56.9958C318.055 57.4958 317.019 57.7458 315.883 57.7458ZM312.883 53.4333C312.883 54.2771 313.17 54.9594 313.743 55.4802C314.316 55.9906 315.144 56.2458 316.227 56.2458C317.321 56.2458 318.331 55.9698 319.258 55.4177C320.196 54.8552 320.878 54.1208 321.305 53.2146V50.0427H317.915C316.404 50.0427 315.185 50.3656 314.258 51.0115C313.342 51.6469 312.883 52.4542 312.883 53.4333ZM339.727 50.5896V50.8865C339.727 53.1781 339.211 54.9958 338.18 56.3396C337.149 57.6833 335.727 58.3552 333.915 58.3552C331.79 58.3552 330.196 57.5792 329.133 56.0271V63.9177H327.446V42.8552H328.868L329.086 45.2146C330.118 43.4542 331.717 42.574 333.883 42.574C335.706 42.574 337.133 43.2979 338.165 44.7458C339.206 46.1833 339.727 48.1313 339.727 50.5896ZM338.04 50.8708V50.5896C338.04 48.5896 337.649 46.9958 336.868 45.8083C336.086 44.6208 334.967 44.0271 333.508 44.0271C331.425 44.0271 329.972 45.0011 329.149 46.949V54.2615C329.982 56.0531 331.446 56.949 333.54 56.949C334.987 56.949 336.097 56.4073 336.868 55.324C337.649 54.2302 338.04 52.7458 338.04 50.8708ZM350.18 41.9021C353.493 41.9021 355.149 43.9438 355.149 48.0271V57.4021H353.461V47.9958C353.461 44.9125 352.243 43.3708 349.805 43.3708C348.67 43.3708 347.711 43.6625 346.93 44.2458C346.149 44.8292 345.571 45.6417 345.196 46.6833V57.4021H343.508V35.4646H345.196L345.18 44.7927C346.253 42.8656 347.92 41.9021 350.18 41.9021ZM360.055 64.2302C359.503 64.2302 359.06 64.1625 358.727 64.0271L358.93 62.6208C359.243 62.6938 359.602 62.7302 360.008 62.7302C360.696 62.7302 361.264 62.4906 361.711 62.0115C362.159 61.5323 362.55 60.8448 362.883 59.949L363.696 57.8865L357.821 42.8708H359.68L363.852 53.9646L364.383 55.7771H364.461L369.055 42.8708H370.946L364.336 60.5115C363.878 61.7094 363.326 62.6261 362.68 63.2615C362.045 63.9073 361.17 64.2302 360.055 64.2302Z" fill="black"/>
<path d="M101.913 43.4999H88.255V39.7886H107.603V42.9556L93.5003 60.1267V60.2257H107.801V63.9865H87.8096V60.8195L101.913 43.5989V43.4999ZM116.347 58.4937L113.922 63.9865H109.567L120.256 39.7886H124.611L135.25 63.9865H130.895L128.47 58.4937H116.347ZM126.837 54.6834L122.433 44.737L118.029 54.6834H126.837ZM142.727 43.5989V50.2298H153.465V53.9906H142.727V63.9865H138.62V39.7886H154.752L154.702 43.5989H142.727ZM173.676 55.1783L180.01 63.9865H174.814L169.024 55.8216H163.68V63.9865H159.573V39.7886H168.579C172.241 39.7886 174.864 40.4154 176.447 41.669C178.064 42.8896 178.872 44.8855 178.872 47.6566C178.872 51.6484 177.14 54.1556 173.676 55.1783ZM168.727 52.1597C171.004 52.1597 172.571 51.8133 173.429 51.1205C174.286 50.4277 174.715 49.2566 174.715 47.6071C174.715 46.0236 174.286 44.9515 173.429 44.3906C172.571 43.7968 171.037 43.4999 168.826 43.4999H163.68V52.1597H168.727ZM188.206 58.4937L185.781 63.9865H181.427L192.115 39.7886H196.47L207.109 63.9865H202.754L200.33 58.4937H188.206ZM198.697 54.6834L194.293 44.737L189.888 54.6834H198.697Z" fill="black"/>
</svg>
